# xmcd CD database file
#
# Track frame offsets:
#	150
#	19589
#	39823
#	59058
#	71550
#	92151
#	110276
#	129645
#	149546
#	168202
#	186345
#	203036
#
# Disc length: 2944 seconds
#
# Revision: 0
# Processed by: cddbd v1.5.2PL0 Copyright (c) Steve Scherf et al.
# Submitted via: CDex 1.51
#
DISCID=a80b7e0c
DTITLE=Various Artist - Bachata, Simply The Best
DYEAR=2007
DGENRE=Salsa
TTITLE0=Aventura - Los Infieles
TTITLE1=Aventura feat. Don Omar - Ella Y Yo
TTITLE2=Omar, Don - Pobre Diabla
TTITLE3=Hector 'El Father' - Sola (Bacgata Version)
TTITLE4=Los Toros Band - Quizas Si Quisas No
TTITLE5=Reyes, Frank - Tu Eres Ajena
TTITLE6=Andy Andy - Que Ironia
TTITLE7=Aventura -Un Beso
TTITLE8=Monchy Y Alexandra - Dos Locos
TTITLE9=Los Toros Band - Mi Nina
TTITLE10=Monchy Y Alexandra - No Es Una Novela
TTITLE11=Luna, Rigo - Nunca (Bachata Version)
EXTD=YEAR: 2007
EXTT0=
EXTT1=
EXTT2=
EXTT3=
EXTT4=
EXTT5=
EXTT6=
EXTT7=
EXTT8=
EXTT9=
EXTT10=
EXTT11=
PLAYORDER=
